<mxfile host="app.diagrams.net" agent="Mozilla/5.0 (Windows NT 10.0; Win64; x64) AppleWebKit/537.36 (KHTML, like Gecko) Chrome/130.0.0.0 Safari/537.36" version="24.8.6">
  <diagram name="Page-1" id="tZGWbG2pw_UXOBvH1EGa">
    <mxGraphModel dx="1050" dy="1657" grid="1" gridSize="10" guides="1" tooltips="1" connect="1" arrows="1" fold="1" page="1" pageScale="1" pageWidth="850" pageHeight="1100" math="0" shadow="0">
      <root>
        <mxCell id="0" />
        <mxCell id="1" parent="0" />
        <mxCell id="Tx8oOLtblgim7wrRI2mb-1" value="Blob Trigger : Function App To Handle Upload document" style="image;aspect=fixed;html=1;points=[];align=center;fontSize=12;image=img/lib/azure2/compute/Function_Apps.svg;" parent="1" vertex="1">
          <mxGeometry x="280" y="-970" width="140.53" height="124" as="geometry" />
        </mxCell>
        <mxCell id="Tx8oOLtblgim7wrRI2mb-2" value="Azure Blob Storage" style="sketch=0;pointerEvents=1;shadow=0;dashed=0;html=1;strokeColor=none;fillColor=#DF8C42;labelPosition=center;verticalLabelPosition=bottom;verticalAlign=top;align=center;outlineConnect=0;shape=mxgraph.veeam2.azure_blob;" parent="1" vertex="1">
          <mxGeometry x="20" y="-966" width="130" height="120" as="geometry" />
        </mxCell>
        <mxCell id="Tx8oOLtblgim7wrRI2mb-3" value="Azure Message Queue to Process Request Async" style="verticalLabelPosition=bottom;html=1;verticalAlign=top;align=center;strokeColor=none;fillColor=#00BEF2;shape=mxgraph.azure.storage_queue;" parent="1" vertex="1">
          <mxGeometry x="594.5" y="-966" width="130" height="120" as="geometry" />
        </mxCell>
        <mxCell id="Tx8oOLtblgim7wrRI2mb-4" value="QueueTrigger : Process Each document to index it into Vector DB" style="image;aspect=fixed;html=1;points=[];align=center;fontSize=12;image=img/lib/azure2/compute/Function_Apps.svg;" parent="1" vertex="1">
          <mxGeometry x="591.5" y="-696" width="136" height="120" as="geometry" />
        </mxCell>
        <mxCell id="Tx8oOLtblgim7wrRI2mb-5" value="Azure Vector DB Indexed" style="outlineConnect=0;dashed=0;verticalLabelPosition=bottom;verticalAlign=top;align=center;html=1;shape=mxgraph.aws3.global_secondary_index;fillColor=#2E73B8;gradientColor=none;" parent="1" vertex="1">
          <mxGeometry x="250" y="-696" width="130" height="120" as="geometry" />
        </mxCell>
        <mxCell id="Tx8oOLtblgim7wrRI2mb-11" value="On Upload Files" style="html=1;shadow=0;dashed=0;align=center;verticalAlign=middle;shape=mxgraph.arrows2.arrow;dy=0.6;dx=40;notch=0;" parent="1" vertex="1">
          <mxGeometry x="153" y="-921.5" width="117" height="27" as="geometry" />
        </mxCell>
        <mxCell id="Tx8oOLtblgim7wrRI2mb-12" value="&lt;font style=&quot;font-size: 11px;&quot;&gt;Send message to Queue&lt;/font&gt;" style="html=1;shadow=0;dashed=0;align=center;verticalAlign=middle;shape=mxgraph.arrows2.arrow;dy=0.6;dx=40;notch=0;" parent="1" vertex="1">
          <mxGeometry x="430" y="-926.5" width="150" height="37" as="geometry" />
        </mxCell>
        <mxCell id="Tx8oOLtblgim7wrRI2mb-13" value="Trigger Fn to process each blob request async" style="html=1;shadow=0;dashed=0;align=center;verticalAlign=middle;shape=mxgraph.arrows2.arrow;dy=0.6;dx=40;direction=south;notch=0;" parent="1" vertex="1">
          <mxGeometry x="636" y="-816" width="47" height="110" as="geometry" />
        </mxCell>
        <mxCell id="Tx8oOLtblgim7wrRI2mb-14" value="Index document in Vector DB" style="html=1;shadow=0;dashed=0;align=center;verticalAlign=middle;shape=mxgraph.arrows2.arrow;dy=0.6;dx=40;flipH=1;notch=0;" parent="1" vertex="1">
          <mxGeometry x="390" y="-663.5" width="177" height="55" as="geometry" />
        </mxCell>
        <mxCell id="Tx8oOLtblgim7wrRI2mb-17" value="Create/Update IBM Document On indexing done" style="shape=image;verticalLabelPosition=bottom;labelBackgroundColor=default;verticalAlign=top;aspect=fixed;imageAspect=0;image=https://static.wixstatic.com/media/220bc8_15598e9f0b214d13a8c917af04a7701e~mv2.png/v1/fill/w_568,h_568,al_c,q_85,usm_0.66_1.00_0.01,enc_auto/220bc8_15598e9f0b214d13a8c917af04a7701e~mv2.png;" parent="1" vertex="1">
          <mxGeometry x="584.5" y="-416" width="150" height="150" as="geometry" />
        </mxCell>
        <mxCell id="Tx8oOLtblgim7wrRI2mb-18" value="Create IBM Document Record in Dataverse for each file" style="html=1;shadow=0;dashed=0;align=center;verticalAlign=middle;shape=mxgraph.arrows2.arrow;dy=0.6;dx=40;direction=south;notch=0;" parent="1" vertex="1">
          <mxGeometry x="634.5" y="-536" width="50" height="100" as="geometry" />
        </mxCell>
        <mxCell id="Tx8oOLtblgim7wrRI2mb-20" value="&lt;b&gt;&lt;font style=&quot;font-size: 19px;&quot;&gt;Index Blob Upload Files into Vector DB High level Architecture&lt;/font&gt;&lt;/b&gt;" style="text;html=1;align=center;verticalAlign=middle;whiteSpace=wrap;rounded=0;" parent="1" vertex="1">
          <mxGeometry x="4.5" y="-1080" width="590" height="30" as="geometry" />
        </mxCell>
      </root>
    </mxGraphModel>
  </diagram>
</mxfile>
